<?xml version="1.0" encoding="utf-8"?>
<!-- Generator: Adobe Illustrator 15.0.0, SVG Export Plug-In  -->
<!DOCTYPE svg PUBLIC "-//W3C//DTD SVG 1.1//EN" "http://www.w3.org/Graphics/SVG/1.1/DTD/svg11.dtd" [
	<!ENTITY ns_flows "http://ns.adobe.com/Flows/1.0/">
]>
<svg version="1.1"
	 xmlns="http://www.w3.org/2000/svg" xmlns:xlink="http://www.w3.org/1999/xlink" xmlns:a="http://ns.adobe.com/AdobeSVGViewerExtensions/3.0/"
	 x="0px" y="0px" width="61px" height="61px" viewBox="-1 -1 61 61" overflow="visible" enable-background="new -1 -1 61 61"
	 xml:space="preserve" preserveAspectRatio="xMinYMin meet">
<defs>
</defs>
<path fill="#FFFFFF" d="M39.9,57.2c14.5-5,22.8-22.4,17.7-36.8C53.5,7.1,39-2,25.3,0.4C13.7,1.9,3.6,11.1,0.9,22.5
	C-1.9,33,1.9,45,10.3,52C18.2,59,30,60.9,39.9,57.2z M6.2,40.1c-3.6-7.6-2.9-17,1.6-24.1C11.8,9.6,18.8,5.1,26.3,4.2
	c11.7-1.8,23.8,5.9,27.5,17.1c4.9,12.9-3,28.4-16,32.6C25.7,58.1,11.2,51.9,6.2,40.1z"/>
<path fill="#FFFFFF" d="M45,26.4c0,2,0.1,4,0.1,6c-6.8,0.1-20.3,0.3-20.3,0.3l9,8.4l-7.4,0.1L14,29.8L26.2,18l7.5-0.1
	c0,0-5.9,5.9-8.9,8.8C31.5,26.6,38.2,26.5,45,26.4z"/>
</svg>
