<?xml version="1.0" encoding="utf-8"?>
<!-- Generator: Adobe Illustrator 15.0.0, SVG Export Plug-In  -->
<!DOCTYPE svg PUBLIC "-//W3C//DTD SVG 1.1//EN" "http://www.w3.org/Graphics/SVG/1.1/DTD/svg11.dtd" [
	<!ENTITY ns_flows "http://ns.adobe.com/Flows/1.0/">
]>
<svg version="1.1"
	 xmlns="http://www.w3.org/2000/svg" xmlns:xlink="http://www.w3.org/1999/xlink" xmlns:a="http://ns.adobe.com/AdobeSVGViewerExtensions/3.0/"
	 x="0px" y="0px" width="134px" height="140px" viewBox="-0.824 -0.809 134 140"
	 overflow="visible" enable-background="new -0.824 -0.809 134 140" xml:space="preserve">
<defs>
</defs>
<path fill="#FFFFFF" d="M116.434,0L0,47.2l7.294,17.994l116.435-47.2L116.434,0z M28.35,54.385l-9.59,3.888l1.18-16.391l9.757-3.955
	L28.35,54.385z M49.386,45.858l-9.592,3.888l1.18-16.391l9.757-3.956L49.386,45.858z M69.786,37.588l-9.59,3.888l1.181-16.392
	l9.756-3.955L69.786,37.588z M89.994,29.396l-9.59,3.888l1.18-16.391l9.757-3.955L89.994,29.396z M110.633,21.03l-9.591,3.888
	l1.181-16.391l9.756-3.955L110.633,21.03z"/>
<path fill="#FFFFFF" d="M133,138.857V62.291H7.363v76.566H133z M116.626,64.505h10.528l-7.432,14.87h-10.349L116.626,64.505z
	 M94.357,64.505h10.527l-7.431,14.87H87.105L94.357,64.505z M72.551,64.505h10.527l-7.431,14.87H65.299L72.551,64.505z
	 M50.538,64.505h10.528l-7.431,14.87H43.286L50.538,64.505z M27.84,64.505h10.528l-7.432,14.87H20.588L27.84,64.505z"/>
</svg>
