<?xml version="1.0" encoding="utf-8"?>
<!-- Generator: Adobe Illustrator 15.0.0, SVG Export Plug-In  -->
<!DOCTYPE svg PUBLIC "-//W3C//DTD SVG 1.1//EN" "http://www.w3.org/Graphics/SVG/1.1/DTD/svg11.dtd" [
	<!ENTITY ns_flows "http://ns.adobe.com/Flows/1.0/">
]>
<svg version="1.1"
	 xmlns="http://www.w3.org/2000/svg" xmlns:xlink="http://www.w3.org/1999/xlink" xmlns:a="http://ns.adobe.com/AdobeSVGViewerExtensions/3.0/"
	 x="0px" y="0px" width="231px" height="200px" viewBox="-0.539 -0.97 231 200"
	 overflow="visible" enable-background="new -0.539 -0.97 231 200" xml:space="preserve">
<defs>
</defs>
<polygon fill="#FFFFFF" stroke="#FFFFFF" stroke-width="8.386" points="69.446,98.67 56.797,113.292 44.258,98.575 25.432,102.963 
	23.938,83.684 6.129,76.17 16.247,59.702 6.258,43.15 24.127,35.776 25.772,16.513 44.562,21.052 57.218,6.436 69.752,21.152 
	88.581,16.763 90.072,36.036 107.886,43.551 97.76,60.024 107.753,76.571 89.883,83.948 88.241,103.209 "/>
<path fill="#FFFFFF" d="M230.461,159.202V44.53h-181v114.672h74.023v13.975h-19.963l-9.357,17.985v7.353h91.594v-7.353
	l-9.363-17.985h-19.957v-13.975H230.461z M65.275,143.388V60.344h149.366v83.043H65.275z"/>
</svg>
