<?xml version="1.0" encoding="utf-8"?>
<!-- Generator: Adobe Illustrator 15.0.0, SVG Export Plug-In  -->
<!DOCTYPE svg PUBLIC "-//W3C//DTD SVG 1.1//EN" "http://www.w3.org/Graphics/SVG/1.1/DTD/svg11.dtd" [
	<!ENTITY ns_flows "http://ns.adobe.com/Flows/1.0/">
]>
<svg version="1.1"
	 xmlns="http://www.w3.org/2000/svg" xmlns:xlink="http://www.w3.org/1999/xlink" xmlns:a="http://ns.adobe.com/AdobeSVGViewerExtensions/3.0/"
	 x="0px" y="0px" width="30px" height="32px" viewBox="-0.329 -0.72 30 32"
	 overflow="visible" enable-background="new -0.329 -0.72 30 32" xml:space="preserve">
<defs>
</defs>
<path fill="#FFFFFF" d="M1.351,9.38c2.32-5.6,8.141-8.85,13.99-9.38c-3.07,4.18-5.56,9.48-3.97,14.76
	c1.5,6.95,7.97,11.831,14.899,12.43c-5.04,4.16-12.52,5.38-18.3,2.061C1.051,25.639-1.968,16.42,1.351,9.38z"/>
<polygon fill="#FFFFFF" points="22.376,1.949 23.612,4.454 26.375,4.855 24.375,6.805 24.848,9.557 22.376,8.257 19.904,9.557 
	20.376,6.805 18.376,4.855 21.14,4.454 "/>
<polygon fill="#FFFFFF" points="26.375,12.504 27.279,14.335 29.299,14.629 27.837,16.054 28.182,18.067 26.375,17.116 
	24.569,18.067 24.914,16.054 23.452,14.629 25.472,14.335 "/>
</svg>
