<?xml version="1.0" encoding="utf-8"?>
<!-- Generator: Adobe Illustrator 15.0.0, SVG Export Plug-In  -->
<!DOCTYPE svg PUBLIC "-//W3C//DTD SVG 1.1//EN" "http://www.w3.org/Graphics/SVG/1.1/DTD/svg11.dtd" [
	<!ENTITY ns_flows "http://ns.adobe.com/Flows/1.0/">
]>
<svg version="1.1"
	 xmlns="http://www.w3.org/2000/svg" xmlns:xlink="http://www.w3.org/1999/xlink" xmlns:a="http://ns.adobe.com/AdobeSVGViewerExtensions/3.0/"
	 x="0px" y="0px" width="36px" height="20px" viewBox="-0.91 -0.84 36 20"
	 overflow="visible" enable-background="new -0.91 -0.84 36 20" xml:space="preserve">
<defs>
</defs>
<path fill="#FFFFFF" d="M10.93,6.095c0.63-2.48,1.747-4.967,4.55-5.9c3.081-0.821,5.53,1.09,7.221,3.19
	c4.29-2.12,8.979,1.31,8.79,5.94c1.199,1.41,2.7,2.56,2.649,4.88c-0.01,2.33-1.748,4.2-4.16,4.2c-8.028,0-16.388,0-24.63-0.03
	c-1.404,0.03-3.2-0.49-4.21-1.77c-2.04-2.12-0.944-5.438,0.21-6.613c2.009-2.043,5.026-2.789,5.94-1.798
	C8.146,6.814,8.868,6.216,10.93,6.095z"/>
</svg>
