<?xml version="1.0" encoding="utf-8"?>
<!-- Generator: Adobe Illustrator 15.0.0, SVG Export Plug-In  -->
<!DOCTYPE svg PUBLIC "-//W3C//DTD SVG 1.1//EN" "http://www.w3.org/Graphics/SVG/1.1/DTD/svg11.dtd" [
	<!ENTITY ns_flows "http://ns.adobe.com/Flows/1.0/">
]>
<svg version="1.1"
	 xmlns="http://www.w3.org/2000/svg" xmlns:xlink="http://www.w3.org/1999/xlink" xmlns:a="http://ns.adobe.com/AdobeSVGViewerExtensions/3.0/"
	 x="0px" y="0px" width="46px" height="13px" viewBox="-0.875 -0.166 46 13"
	 overflow="visible" enable-background="new -0.875 -0.166 46 13" xml:space="preserve">
<defs>
</defs>
<path fill="#FFFFFF" d="M15.868,9.284c0.63-0.593,1.747-1.187,4.55-1.409c3.081-0.196,5.53,0.261,7.221,0.762
	c4.29-0.507,8.979,0.312,8.79,1.418c1.199,0.337,2.7,0.611,2.649,1.165c-0.01,0.557-1.748,1.002-4.16,1.002
	c-8.028,0-16.388,0-24.63-0.006c-1.404,0.006-3.2-0.117-4.21-0.424c-2.04-0.506-0.944-1.298,0.21-1.578
	c2.009-0.488,5.026-0.666,5.94-0.43C13.083,9.455,13.805,9.312,15.868,9.284z"/>
<path fill="#FFFFFF" d="M21.87,7.829c2.405,0,4.353,0.388,5.769,0.808c0.892-0.105,1.802-0.153,2.681-0.153
	c3.349,0,6.26,0.695,6.109,1.571c1.199,0.337,2.7,0.611,2.649,1.165c-0.01,0.557-1.748,1.002-4.16,1.002
	c-8.028,0-16.388,0-24.63-0.006c-0.038,0-0.076,0-0.114,0c-1.387,0-3.113-0.126-4.096-0.424c-2.04-0.506-0.944-1.298,0.21-1.578
	C7.701,9.87,9.614,9.68,10.942,9.68c0.56,0,1.015,0.034,1.286,0.104c0.855-0.329,1.577-0.472,3.64-0.5
	c0.63-0.593,1.747-1.187,4.55-1.409C20.918,7.842,21.403,7.829,21.87,7.829"/>
<path fill="#FFFFFF" d="M7.801,1.257c0.45-0.512,1.247-1.025,3.248-1.217c2.199-0.169,3.947,0.225,5.153,0.658
	c3.062-0.438,6.409,0.27,6.274,1.226c0.855,0.291,1.928,0.528,1.891,1.007c-0.007,0.48-1.247,0.866-2.969,0.866
	c-5.73,0-11.697,0-17.58-0.006C2.817,3.797,1.535,3.689,0.814,3.425C-0.642,2.988,0.14,2.304,0.963,2.062
	C2.397,1.64,4.551,1.486,5.204,1.69C5.814,1.406,6.33,1.282,7.801,1.257z"/>
<path fill="#FFFFFF" d="M12.085,0c1.717,0,3.106,0.335,4.117,0.698c0.637-0.091,1.286-0.132,1.914-0.132
	c2.39,0,4.468,0.601,4.36,1.358c0.855,0.291,1.928,0.528,1.891,1.007c-0.007,0.48-1.247,0.866-2.969,0.866
	c-5.73,0-11.697,0-17.58-0.006c-0.027,0-0.055,0-0.082,0c-0.989,0-2.222-0.108-2.923-0.366C-0.642,2.988,0.14,2.304,0.963,2.062
	c1.009-0.297,2.374-0.46,3.322-0.46c0.399,0,0.725,0.029,0.918,0.089c0.61-0.285,1.126-0.408,2.598-0.433
	c0.45-0.512,1.247-1.025,3.248-1.217C11.407,0.013,11.752,0,12.085,0"/>
<path fill="#FFFFFF" d="M27.956,3.156c0.45-0.512,1.247-1.025,3.248-1.217c2.199-0.169,3.947,0.225,5.153,0.658
	c3.062-0.438,6.409,0.27,6.274,1.226c0.855,0.291,1.928,0.528,1.891,1.007c-0.007,0.48-1.247,0.866-2.969,0.866
	c-5.73,0-11.697,0-17.58-0.006c-1.002,0.006-2.284-0.102-3.005-0.366c-1.456-0.437-0.674-1.122,0.149-1.364
	c1.434-0.422,3.588-0.575,4.24-0.371C25.968,3.304,26.484,3.181,27.956,3.156z"/>
<path fill="#FFFFFF" d="M32.24,1.898c1.717,0,3.106,0.335,4.117,0.698c0.637-0.091,1.286-0.132,1.914-0.132
	c2.39,0,4.468,0.601,4.36,1.358c0.855,0.291,1.928,0.528,1.891,1.007c-0.007,0.48-1.247,0.866-2.969,0.866
	c-5.73,0-11.697,0-17.58-0.006c-0.027,0-0.055,0-0.082,0c-0.989,0-2.222-0.108-2.923-0.366c-1.456-0.437-0.674-1.122,0.149-1.364
	c1.009-0.297,2.374-0.46,3.322-0.46c0.399,0,0.725,0.029,0.918,0.089c0.61-0.285,1.126-0.408,2.598-0.433
	c0.45-0.512,1.247-1.025,3.248-1.217C31.561,1.911,31.907,1.898,32.24,1.898"/>
</svg>
