<?xml version="1.0" encoding="utf-8"?>
<!-- Generator: Adobe Illustrator 15.0.0, SVG Export Plug-In  -->
<!DOCTYPE svg PUBLIC "-//W3C//DTD SVG 1.1//EN" "http://www.w3.org/Graphics/SVG/1.1/DTD/svg11.dtd" [
	<!ENTITY ns_flows "http://ns.adobe.com/Flows/1.0/">
]>
<svg version="1.1"
	 xmlns="http://www.w3.org/2000/svg" xmlns:xlink="http://www.w3.org/1999/xlink" xmlns:a="http://ns.adobe.com/AdobeSVGViewerExtensions/3.0/"
	 x="0px" y="0px" width="35px" height="36px" viewBox="-0.616 -0.765 35 36"
	 overflow="visible" enable-background="new -0.616 -0.765 35 36" xml:space="preserve">
<defs>
</defs>
<path fill="#FFFFFF" d="M16.205,20.476c1.81-0.02,3.62-0.02,5.43,0c-0.31,0.529-0.95,1.58-1.27,2.1c1.47,0.03,2.949,0.061,4.43,0.11
	c-3.45,3.86-6.86,7.739-10.3,11.6c0.979-2.76,2.13-5.46,3.27-8.159c-0.91-0.031-2.75-0.07-3.66-0.091
	C14.794,24.175,15.495,22.325,16.205,20.476z"/>
<path fill="#FFFFFF" d="M10.93,6.095c0.63-2.48,1.747-4.967,4.55-5.9c3.081-0.821,5.53,1.09,7.221,3.19
	c4.29-2.12,8.979,1.31,8.79,5.94c1.199,1.41,2.7,2.56,2.649,4.88c-0.01,2.33-1.748,4.201-4.16,4.201c-8.028,0-16.388,0-24.63-0.03
	c-1.404,0.03-3.2-0.49-4.21-1.771c-2.04-2.12-0.944-5.438,0.21-6.612c2.009-2.043,5.026-2.789,5.94-1.798
	C8.146,6.814,8.868,6.216,10.93,6.095z"/>
</svg>
