<?xml version="1.0" encoding="utf-8"?>
<!-- Generator: Adobe Illustrator 15.0.0, SVG Export Plug-In  -->
<!DOCTYPE svg PUBLIC "-//W3C//DTD SVG 1.1//EN" "http://www.w3.org/Graphics/SVG/1.1/DTD/svg11.dtd" [
	<!ENTITY ns_flows "http://ns.adobe.com/Flows/1.0/">
]>
<svg version="1.1"
	 xmlns="http://www.w3.org/2000/svg" xmlns:xlink="http://www.w3.org/1999/xlink" xmlns:a="http://ns.adobe.com/AdobeSVGViewerExtensions/3.0/"
	 x="0px" y="0px" width="35px" height="29px" viewBox="-0.813 -0.643 35 29"
	 overflow="visible" enable-background="new -0.813 -0.643 35 29" xml:space="preserve">
<defs>
</defs>
<path fill="#FFFFFF" d="M10.93,15.063c0.63-2.48,1.747-4.967,4.55-5.9c3.081-0.821,5.53,1.09,7.221,3.19
	c4.29-2.12,8.979,1.31,8.79,5.939c1.199,1.41,2.7,2.561,2.649,4.881c-0.01,2.33-1.748,4.199-4.16,4.199
	c-8.028,0-16.388,0-24.63-0.029c-1.404,0.029-3.2-0.49-4.21-1.77c-2.04-2.121-0.944-5.439,0.21-6.613
	c2.009-2.043,5.026-2.789,5.94-1.798C8.146,15.783,8.868,15.185,10.93,15.063z"/>
<path fill="#FFFFFF" d="M16.932,8.968c2.405,0,4.353,1.626,5.769,3.385c0.892-0.441,1.802-0.642,2.681-0.642
	c3.349,0,6.26,2.914,6.109,6.581c1.199,1.41,2.7,2.561,2.649,4.881c-0.01,2.33-1.748,4.199-4.16,4.199
	c-8.028,0-16.388,0-24.63-0.029c-0.038,0.001-0.076,0.001-0.114,0.001c-1.387,0-3.113-0.526-4.096-1.771
	c-2.04-2.121-0.944-5.439,0.21-6.613c1.413-1.438,3.326-2.232,4.654-2.232c0.56,0,1.015,0.141,1.286,0.435
	c0.855-1.38,1.577-1.978,3.64-2.1c0.63-2.48,1.747-4.967,4.55-5.9C15.981,9.03,16.465,8.968,16.932,8.968"/>
<path fill="#FFFFFF" d="M14.54,4.598c0.97-0.699,2.144-2.746,3.294-1.703s-0.967,2.282-1.735,3.281
	C15.579,5.642,15.059,5.117,14.54,4.598z"/>
<path fill="#FFFFFF" d="M7.212,4.605C6.244,3.906,5.07,1.86,3.919,2.902C2.768,3.945,4.886,5.185,5.655,6.183
	C6.174,5.649,6.693,5.125,7.212,4.605z"/>
<path fill="#FFFFFF" d="M11.992,3.535c-0.191-1.18,0.426-3.457-1.125-3.533C9.316-0.074,9.937,2.3,9.774,3.549
	C10.519,3.539,11.257,3.535,11.992,3.535z"/>
<path fill="#FFFFFF" d="M4.615,10.961c-1.179-0.19-3.456,0.426-3.533-1.124C1.005,8.286,3.379,8.906,4.629,8.744
	C4.619,9.489,4.615,10.227,4.615,10.961z"/>
<path fill="#FFFFFF" d="M10.551,14.546c0.585-2.126,1.742-4.849,4.8-5.866c0.04-0.011,0.08-0.014,0.12-0.024
	c-0.684-2.659-3.926-4.428-6.483-3.14c-1.513,0.704-2.671,2.212-2.826,3.89C5.878,11.948,8.018,14.408,10.551,14.546z"/>
<path fill="#FFFFFF" d="M20.261,10.054c-0.04-0.026-0.078-0.053-0.118-0.078C20.183,10.001,20.221,10.028,20.261,10.054z"/>
<path fill="#FFFFFF" d="M19.5,9.608c-0.045-0.022-0.09-0.043-0.135-0.064C19.41,9.565,19.455,9.586,19.5,9.608z"/>
<path fill="#FFFFFF" d="M17.9,9.063c-0.046-0.009-0.091-0.019-0.137-0.026C17.809,9.045,17.854,9.055,17.9,9.063z"/>
<path fill="#FFFFFF" d="M20.685,9.732c-0.12-0.895-1.043-0.995-2.004-0.988C19.362,8.953,20.031,9.277,20.685,9.732z"/>
<path fill="#FFFFFF" d="M18.66,9.254c-0.015-0.004-0.029-0.008-0.044-0.012C18.63,9.246,18.645,9.25,18.66,9.254z"/>
<path fill="#FFFFFF" d="M4.419,17.036c0.062-0.021,0.126-0.049,0.188-0.067c-0.07,0.021-0.14,0.039-0.21,0.063
	C4.404,17.035,4.412,17.034,4.419,17.036z"/>
<path fill="#FFFFFF" d="M5.386,16.789c0.004-0.003,0.008-0.006,0.012-0.008c-0.192,0.029-0.392,0.072-0.597,0.129
	C5.002,16.855,5.196,16.818,5.386,16.789z"/>
<path fill="#FFFFFF" d="M6.004,16.228c0.014,0,0.025,0.003,0.04,0.003c0.423-0.417,0.828-0.888,1.203-1.159
	c-0.52-0.519-1.038-1.043-1.558-1.577c-0.749,0.973-2.769,2.173-1.811,3.198C4.611,16.4,5.343,16.228,6.004,16.228z"/>
</svg>
