<?xml version="1.0" encoding="utf-8"?>
<!-- Generator: Adobe Illustrator 15.0.0, SVG Export Plug-In  -->
<!DOCTYPE svg PUBLIC "-//W3C//DTD SVG 1.1//EN" "http://www.w3.org/Graphics/SVG/1.1/DTD/svg11.dtd" [
	<!ENTITY ns_flows "http://ns.adobe.com/Flows/1.0/">
]>
<svg version="1.1"
	 xmlns="http://www.w3.org/2000/svg" xmlns:xlink="http://www.w3.org/1999/xlink" xmlns:a="http://ns.adobe.com/AdobeSVGViewerExtensions/3.0/"
	 x="0px" y="0px" width="36px" height="35px" viewBox="-0.91 -0.845 36 35"
	 overflow="visible" enable-background="new -0.91 -0.845 36 35" xml:space="preserve">
<defs>
</defs>
<path fill="#FFFFFF" d="M10.93,6.095c0.63-2.48,1.747-4.967,4.55-5.9c3.081-0.821,5.53,1.09,7.221,3.19
	c4.29-2.12,8.979,1.31,8.79,5.94c1.199,1.41,2.7,2.56,2.649,4.88c-0.01,2.33-1.748,4.2-4.16,4.2c-8.028,0-16.388,0-24.63-0.029
	c-1.404,0.029-3.2-0.49-4.21-1.771c-2.04-2.12-0.944-5.438,0.21-6.613c2.009-2.043,5.026-2.789,5.94-1.798
	C8.146,6.814,8.868,6.216,10.93,6.095z"/>
<polygon fill="#FDFEFF" points="20.329,25.37 20.628,24.47 20.061,23.778 20.344,23.51 20.817,24.03 21.054,23.368 21.432,23.542 
	21.179,24.219 22,24.108 22,24.423 21.132,24.534 20.739,25.527 20.817,25.668 22,25.668 22.315,24.692 22.677,24.801 
	22.393,25.668 23.243,25.668 23.243,25.967 22.488,26.063 22.866,26.645 22.488,26.788 22.078,26.063 20.754,26.032 20.628,26.125 
	21.117,27.008 22.046,27.149 22.046,27.481 21.258,27.402 21.653,28.063 21.362,28.208 20.959,27.59 20.533,28.143 20.266,27.954 
	20.708,27.197 20.344,26.236 20.17,26.172 19.399,26.819 19.667,27.638 19.399,27.78 19.083,27.118 18.343,27.733 18.107,27.434 
	18.8,26.881 18.107,26.645 18.186,26.377 19.068,26.583 19.951,25.952 19.935,25.794 19.021,25.305 18.343,25.668 18.012,25.37 
	18.627,25.101 18.012,24.723 18.233,24.36 18.926,24.801 18.879,23.967 19.226,23.967 19.289,24.959 20.108,25.463 "/>
<polygon fill="#FDFEFF" points="12.412,31.125 12.336,30.182 11.543,29.766 11.7,29.409 12.337,29.702 12.297,29 12.713,29.012 
	12.745,29.735 13.457,29.313 13.581,29.602 12.825,30.043 12.85,31.111 12.978,31.21 14.066,30.749 13.975,29.727 14.352,29.686 
	14.428,30.594 15.21,30.263 15.328,30.54 14.669,30.92 15.246,31.31 14.953,31.588 14.292,31.081 13.062,31.569 12.983,31.706 
	13.777,32.327 14.688,32.094 14.817,32.399 14.061,32.634 14.683,33.089 14.471,33.336 13.86,32.924 13.682,33.6 13.363,33.53 
	13.474,32.661 12.764,31.918 12.58,31.927 12.122,32.824 12.689,33.473 12.498,33.709 11.949,33.223 11.506,34.077 11.172,33.894 
	11.595,33.116 10.865,33.168 10.833,32.891 11.725,32.735 12.292,31.811 12.215,31.671 11.183,31.579 10.701,32.176 10.279,32.031 
	10.741,31.543 10.027,31.436 10.088,31.016 10.899,31.151 10.53,30.401 10.849,30.266 11.293,31.155 12.245,31.299 "/>
<polygon fill="#FDFEFF" points="5.056,24.847 4.315,24.257 3.469,24.552 3.315,24.194 3.965,23.929 3.424,23.479 3.717,23.183 
	4.267,23.654 4.445,22.845 4.741,22.953 4.546,23.805 5.344,24.516 5.504,24.491 5.91,23.381 5.101,22.75 5.329,22.446 
	6.044,23.011 6.336,22.213 6.619,22.316 6.448,23.057 7.125,22.903 7.128,23.306 6.307,23.442 5.824,24.674 5.869,24.825 
	6.866,24.67 7.318,23.845 7.628,23.959 7.284,24.672 8.042,24.528 8.077,24.852 7.359,25.018 7.731,25.608 7.461,25.793 
	6.903,25.12 5.875,25.13 5.756,25.272 6.098,26.218 6.959,26.248 7.001,26.548 6.271,26.618 6.593,27.524 6.232,27.643 
	5.952,26.801 5.492,27.372 5.267,27.206 5.762,26.448 5.474,25.403 5.32,25.363 4.547,26.053 4.655,26.815 4.26,27.023 4.22,26.353 
	3.654,26.801 3.389,26.469 4.041,25.969 3.242,25.727 3.36,25.401 4.313,25.684 5.068,25.086 "/>
</svg>
