<?xml version="1.0" encoding="utf-8"?>
<!-- Generator: Adobe Illustrator 15.0.0, SVG Export Plug-In  -->
<!DOCTYPE svg PUBLIC "-//W3C//DTD SVG 1.1//EN" "http://www.w3.org/Graphics/SVG/1.1/DTD/svg11.dtd" [
	<!ENTITY ns_flows "http://ns.adobe.com/Flows/1.0/">
]>
<svg version="1.1"
	 xmlns="http://www.w3.org/2000/svg" xmlns:xlink="http://www.w3.org/1999/xlink" xmlns:a="http://ns.adobe.com/AdobeSVGViewerExtensions/3.0/"
	 x="0px" y="0px" width="41px" height="40px" viewBox="-0.921 -0.162 41 40"
	 overflow="visible" enable-background="new -0.921 -0.162 41 40" xml:space="preserve">
<defs>
</defs>
<path fill="#FFFFFF" d="M15.838,11.048c5.62-2.83,12.91,1.7,13.25,7.88c0.59,5.311-4.189,10.45-9.52,10.23
	c-5.33,0.1-9.98-5.03-9.391-10.32C10.489,15.478,12.809,12.458,15.838,11.048z"/>
<path fill="#FFFFFF" d="M26.958,9.208c1.94-1.4,4.292-5.499,6.597-3.411s-1.937,4.571-3.477,6.571
	C29.039,11.298,27.999,10.249,26.958,9.208z"/>
<path fill="#FFFFFF" d="M12.283,9.223c-1.94-1.4-4.292-5.499-6.597-3.411s1.937,4.571,3.477,6.571
	C10.203,11.313,11.243,10.263,12.283,9.223z"/>
<path fill="#FFFFFF" d="M27.029,30.202c1.94,1.4,4.292,5.499,6.597,3.411s-1.937-4.571-3.477-6.571
	C29.109,28.112,28.069,29.162,27.029,30.202z"/>
<path fill="#FFFFFF" d="M12.353,30.187c-1.94,1.4-4.292,5.499-6.597,3.411s1.937-4.571,3.477-6.571
	C10.273,28.097,11.313,29.147,12.353,30.187z"/>
<path fill="#FFFFFF" d="M32.242,17.447c2.362,0.382,6.924-0.854,7.077,2.252c0.153,3.106-4.603,1.863-7.105,2.188
	C32.235,20.395,32.242,18.917,32.242,17.447z"/>
<path fill="#FFFFFF" d="M21.854,7.08c-0.382-2.362,0.854-6.923-2.252-7.076c-3.106-0.153-1.863,4.602-2.188,7.104
	C18.906,7.086,20.383,7.08,21.854,7.08z"/>
<path fill="#FFFFFF" d="M17.447,32.34c0.382,2.363-0.854,6.924,2.253,7.077c3.105,0.153,1.863-4.602,2.188-7.104
	C20.396,32.333,18.917,32.34,17.447,32.34z"/>
<path fill="#FFFFFF" d="M7.081,21.953c-2.362-0.382-6.924,0.854-7.077-2.252c-0.153-3.106,4.602-1.863,7.105-2.188
	C7.087,19.004,7.081,20.482,7.081,21.953z"/>
</svg>
