<?xml version="1.0" encoding="utf-8"?>
<!-- Generator: Adobe Illustrator 15.0.0, SVG Export Plug-In  -->
<!DOCTYPE svg PUBLIC "-//W3C//DTD SVG 1.1//EN" "http://www.w3.org/Graphics/SVG/1.1/DTD/svg11.dtd" [
	<!ENTITY ns_flows "http://ns.adobe.com/Flows/1.0/">
]>
<svg version="1.1"
	 xmlns="http://www.w3.org/2000/svg" xmlns:xlink="http://www.w3.org/1999/xlink" xmlns:a="http://ns.adobe.com/AdobeSVGViewerExtensions/3.0/"
	 x="0px" y="0px" width="47px" height="16px" viewBox="-0.423 -0.765 47 16"
	 overflow="visible" enable-background="new -0.423 -0.765 47 16" xml:space="preserve">
<defs>
</defs>
<path fill="#FFFFFF" d="M30.724,8.545c0.1-0.065,0.121-0.146,0.135-0.194c0.038-0.139,0.01-0.321-0.042-0.508
	c-0.35-0.082-0.692-0.163-1.033-0.244C30.119,7.842,30.439,8.146,30.724,8.545z"/>
<path fill="#FFFFFF" d="M45.779,2.768c-1.529-2.754-4.703-3.724-7.106-1.661c-3.86,3.312,0.593,8.47,3.165,4.25
	c1.407,0.197,0.856,1.945,0.064,2.572c-1.459,1.154-3.928,1.179-6.613,0.794c0.015,1.167-0.287,2.169-0.587,2.865
	c-0.169,0.391-0.39,0.746-0.633,1.081c0.206,0.065,0.406,0.131,0.617,0.196c5.152,1.613,10.55,0.589,11.781-5.814
	C46.723,5.73,46.354,3.801,45.779,2.768z"/>
<path fill="#FFFFFF" d="M25.565,9.112c0.386-1.041,1.207-1.787,2.136-2c-1.243-0.279-2.351-0.493-3.196-0.535
	c-1.722-0.085-8.331-0.596-17.664,7.896c2.419-1.137,5.074-2.454,7.021-3.15c4.596-1.642,8.075-1.752,11.486-1.142
	C25.37,9.795,25.447,9.433,25.565,9.112z"/>
<path fill="#FFFFFF" d="M0,6.337c2.794,0.744,6.084,0.076,8.804-0.714c6.525-1.902,15.875-3.723,21.771,0.938
	c0.793,0.626,1.345,2.375-0.063,2.572c-2.572-4.219-7.026,0.938-3.166,4.25c2.405,2.063,5.724,0.719,6.897-1.99
	c0.467-1.086,0.698-2.375,0.443-3.696c-1.082-5.634-8.221-7.838-13.244-7.59c-5.031,0.25-9.852,2.451-14.391,4.443
	C3.95,5.911,0.94,6.358,0,6.337z"/>
</svg>
